<svg xmlns="http://www.w3.org/2000/svg" viewBox="0 0 736 1178" preserveAspectRatio="xMidYMid slice">
  <style>
    .major path:nth-child(3n+1) { opacity: .48; }
    .major path:nth-child(3n+2) { opacity: .62; }
    .major path:nth-child(3n) { opacity: .40; }
    .major path:nth-child(7),
    .major path:nth-child(8),
    .major path:nth-child(10) { opacity: .18; }
    .minor path:nth-child(4n+1) { opacity: .28; }
    .minor path:nth-child(4n+2) { opacity: .38; }
    .minor path:nth-child(4n+3) { opacity: .22; }
    .minor path:nth-child(4n) { opacity: .32; }
  </style>
  <rect width="736" height="1178" fill="#11100e"/>
  <g fill="none" stroke-linecap="round" stroke-linejoin="round" transform="translate(-371 957) rotate(-90) translate(-92 -148) scale(1.25)">
    <g class="major" stroke="#f2f2f2" stroke-width="4.6">
      <path d="M-18 0C24 58 88 79 168 75C261 70 337 59 393 97C442 131 446 199 392 229C344 256 296 231 283 181C270 130 221 82 151 92C79 103 55 165 31 222C13 265-19 282-54 284"/>
      <path d="M506-18C489 52 456 98 412 135C361 178 351 226 392 248C433 270 476 227 511 179C545 132 587 55 657 52C706 50 733 98 754 150"/>
      <path d="M601 122C640 100 678 127 672 177C666 226 639 282 659 340C681 404 737 398 764 362"/>
      <path d="M73 274C133 254 189 285 209 349C231 421 226 507 277 541C328 575 397 553 417 495C435 444 394 392 349 374C300 355 298 307 342 284C384 263 435 288 461 341C487 395 529 431 589 437C642 443 682 412 690 362"/>
      <path d="M-38 594C28 601 58 559 48 515C39 473 72 453 114 460C157 467 174 438 153 397C133 357 90 340 56 371C20 404 24 447-18 453"/>
      <path d="M142 608C188 578 236 603 228 664C220 727 183 803 219 861C257 924 345 904 345 835C345 769 326 704 357 664C392 618 452 656 472 711C492 766 468 832 418 873C369 913 296 918 305 957C315 1002 393 979 457 975C523 971 561 1025 528 1080C492 1141 385 1137 319 1099C260 1065 227 1032 181 1034C136 1036 108 1071 70 1112C39 1146-22 1151-45 1118"/>
      <path d="M500 544C532 493 583 502 605 559C624 610 666 639 717 644C758 648 789 682 781 724"/>
      <path d="M521 775C553 724 614 731 640 789C665 846 696 908 759 895"/>
      <path d="M-37 787C7 814 60 815 83 774C105 735 69 703 21 707C-19 710-40 737-58 759"/>
      <path d="M352 1036C401 1008 459 1037 512 1038C585 1040 617 982 684 969C730 960 767 981 791 1015"/>
      <path d="M-41 1052C20 1015 92 1002 129 1036C166 1070 140 1133 87 1138C43 1142 24 1117 42 1088C60 1059 101 1052 114 1075"/>
    </g>

    <g class="minor" stroke="#9f9f9f" stroke-width="1.15">
      <path d="M-12 20C34 63 89 80 163 79C250 77 334 55 401 105C462 151 463 236 400 272C336 309 270 275 252 200C238 139 203 111 151 111C96 111 74 160 51 219C31 270-3 306-54 312"/>
      <path d="M-9 45C41 78 95 91 164 89C249 86 314 75 366 111C415 145 418 207 374 231C332 254 291 230 275 174C258 116 211 78 146 84C76 91 51 152 25 213C4 262-25 286-63 292"/>
      <path d="M-23 74C37 95 93 103 163 100C243 96 293 86 333 113C373 141 377 189 346 209C315 230 281 210 265 160C246 101 201 67 137 73C66 81 35 140 3 208C-18 253-40 267-67 270"/>
      <path d="M-28 111C23 119 85 115 151 109C230 101 280 104 307 129C336 156 332 191 307 201C281 212 259 191 244 145C225 86 179 55 117 61C45 68 6 129-30 199"/>

      <path d="M520 0C507 55 475 107 426 151C376 197 375 231 404 243C437 257 469 225 504 176C548 115 589 44 656 42C712 40 742 91 765 146"/>
      <path d="M548 2C527 60 500 105 461 143C423 179 411 210 435 221C459 232 488 203 521 154C562 92 605 33 666 35C714 36 743 80 766 129"/>
      <path d="M579 2C552 58 531 100 497 137C468 169 460 197 480 205C501 214 529 183 559 133C594 74 625 25 676 27C719 29 748 70 769 118"/>

      <path d="M591 136C621 117 650 130 652 168C653 205 627 257 645 320C661 376 704 393 754 367"/>
      <path d="M620 148C644 139 662 154 657 188C651 223 634 266 650 315C666 365 696 377 734 361"/>
      <path d="M640 159C656 158 665 177 655 210C643 250 643 276 661 306C677 334 699 341 723 329"/>

      <path d="M75 292C125 272 176 298 194 356C215 423 213 503 266 549C320 596 402 579 432 509C456 453 420 394 370 367C331 346 329 313 360 299C396 282 442 304 470 360C497 415 530 448 587 455C648 463 696 432 705 369"/>
      <path d="M93 314C133 300 171 319 186 369C206 437 205 508 255 558C308 611 399 599 445 526C480 470 453 403 390 358C364 339 365 317 390 311C422 303 458 330 485 382C514 438 547 463 593 468C646 473 682 449 693 407"/>
      <path d="M108 341C139 335 164 354 177 398C196 462 201 520 246 567C292 615 375 619 432 562C489 505 486 429 425 371C409 356 412 338 432 339C460 340 482 373 503 416C528 466 560 484 600 486C643 488 669 473 686 446"/>
      <path d="M124 371C146 373 160 394 168 430C184 494 196 531 232 570C269 611 334 625 388 594C459 554 497 470 451 405C443 394 448 382 463 388C486 397 500 428 517 459C537 496 566 505 603 502C637 500 659 488 681 468"/>

      <path d="M332 309C354 291 389 296 406 329C425 368 399 410 360 403C326 397 313 339 332 309Z"/>
      <path d="M347 322C363 310 384 315 395 339C407 366 388 394 362 389C339 385 333 338 347 322Z"/>
      <path d="M376 348C387 350 394 363 389 376C384 389 368 391 361 379C353 366 361 346 376 348Z"/>

      <path d="M-34 610C26 615 64 573 57 520C52 486 75 469 111 476C148 482 166 461 150 425C135 390 100 373 70 395C36 419 33 459-6 470C-34 477-54 494-66 518"/>
      <path d="M-29 646C39 650 84 597 72 529C67 502 84 490 110 497C141 506 157 490 145 461C133 432 106 417 82 435C54 456 50 493 12 508C-22 521-49 553-60 594"/>
      <path d="M-24 687C45 685 101 620 90 544C87 523 99 516 120 523C146 532 160 521 153 496C145 471 124 458 103 471C77 486 72 523 37 543C2 562-35 604-50 660"/>

      <path d="M152 628C188 608 218 630 212 673C204 738 169 802 206 866C248 940 357 928 364 838C369 764 342 706 374 679C404 653 448 681 461 728C474 775 451 830 407 864C357 902 291 909 291 951C292 1004 373 997 452 989C509 984 545 1017 527 1066C504 1128 411 1133 338 1097C272 1065 233 1018 179 1017C130 1015 98 1059 63 1097C28 1134-24 1136-53 1106"/>
      <path d="M173 653C199 642 216 663 207 705C195 762 180 810 211 862C245 919 325 913 339 843C353 772 325 716 362 694C396 675 431 708 439 754C447 801 422 844 382 873C335 908 276 911 276 954C276 1008 357 1011 439 1000C491 994 522 1026 503 1064C480 1110 408 1115 349 1088C286 1059 242 999 180 997C122 996 86 1041 50 1080C18 1115-25 1117-50 1088"/>
      <path d="M190 683C206 682 212 704 199 742C183 789 188 824 217 859C248 897 304 891 317 840C333 780 309 732 349 716C380 704 411 735 413 778C416 819 391 852 356 877C314 906 260 913 260 957C260 1013 344 1024 425 1011C470 1004 495 1033 477 1061C454 1096 397 1098 354 1076C294 1045 250 977 181 977C113 976 71 1023 33 1063C4 1094-29 1097-50 1071"/>
      <path d="M205 716C211 732 202 762 194 786C185 816 199 843 226 860C253 877 288 865 296 831C309 778 289 746 332 741C361 738 384 770 383 808C381 842 356 868 322 891C286 915 244 930 247 966C252 1023 335 1041 410 1022C447 1013 470 1035 452 1056C430 1081 390 1083 357 1067C305 1042 261 956 184 956C103 957 53 1006 12 1048C-13 1073-38 1076-55 1057"/>

      <path d="M488 553C520 516 569 517 591 567C614 619 659 651 714 658C751 663 777 692 772 728"/>
      <path d="M507 584C531 557 566 561 580 600C596 647 638 680 699 690C730 695 749 715 744 742"/>
      <path d="M532 612C550 596 570 605 579 634C591 675 628 713 685 722C714 727 731 743 724 765"/>

      <path d="M525 794C551 754 602 757 625 806C646 851 680 913 755 907"/>
      <path d="M546 813C566 787 600 790 616 828C632 864 663 909 716 914"/>
      <path d="M567 833C579 820 597 825 607 849C619 878 647 903 681 903"/>

      <path d="M362 381C410 399 435 442 420 489C404 540 349 563 304 536C259 509 244 458 275 419C296 392 328 374 362 381Z"/>
      <path d="M374 408C407 421 421 452 410 484C397 521 357 535 326 516C294 497 287 461 307 434C322 414 348 398 374 408Z"/>
      <path d="M386 434C405 445 411 466 401 487C390 510 365 516 346 504C326 491 323 468 336 451C348 436 372 426 386 434Z"/>

      <path d="M-35 802C7 824 58 823 84 785C114 740 80 700 23 699C-24 699-51 724-69 757"/>
      <path d="M-29 828C22 845 75 832 100 789C124 747 91 720 39 719C0 718-30 738-55 771"/>
      <path d="M-22 854C29 861 82 839 109 797C133 761 105 739 60 737C27 736-4 753-34 783"/>

      <path d="M351 1052C399 1027 454 1054 511 1055C579 1057 616 1001 682 988C729 979 766 999 792 1033"/>
      <path d="M375 1075C416 1059 456 1083 507 1084C565 1085 606 1042 668 1027C712 1016 746 1030 773 1054"/>
      <path d="M405 1098C438 1091 469 1110 507 1110C558 1110 603 1078 654 1064C690 1054 720 1061 746 1079"/>

      <path d="M72 1018C116 995 161 1001 186 1035C212 1072 197 1125 157 1153C119 1180 62 1184 30 1154C-7 1120 3 1064 48 1034C90 1005 134 1012 151 1040"/>
      <path d="M79 1049C111 1031 143 1036 160 1060C177 1085 166 1121 139 1138C111 1155 72 1156 52 1136C29 1113 38 1076 67 1058C96 1041 124 1045 136 1062"/>
      <path d="M86 1080C106 1069 126 1070 136 1085C147 1101 138 1122 119 1130C100 1139 76 1136 66 1121C55 1104 64 1092 86 1080Z"/>
    </g>
  </g>
</svg>
